<?xml version="1.0" encoding="utf-8"?>
<!-- Generator: Adobe Illustrator 23.1.1, SVG Export Plug-In . SVG Version: 6.00 Build 0)  -->
<svg version="1.1" id="Layer_1" xmlns="http://www.w3.org/2000/svg" xmlns:xlink="http://www.w3.org/1999/xlink" x="0px" y="0px"
	 viewBox="0 0 900 292.4" style="enable-background:new 0 0 900 292.4;" xml:space="preserve">
<style type="text/css">
	.st0{opacity:0.7;fill:#EA5548;}
	.st1{fill:#003C44;}
</style>
<path class="st0" d="M806.4,100.8h-36c-5.5,0-10-4.5-10-10v-36c0-5.5,4.5-10,10-10h36c5.5,0,10,4.5,10,10v36
	C816.4,96.3,812,100.8,806.4,100.8z"/>
<path class="st1" d="M880.8,100.8h-36c-5.5,0-10-4.5-10-10v-36c0-5.5,4.5-10,10-10h36c5.5,0,10,4.5,10,10v36
	C890.8,96.3,886.3,100.8,880.8,100.8z"/>
<path class="st0" d="M714.9,172.3h-36c-5.5,0-10-4.5-10-10v-36c0-5.5,4.5-10,10-10h36c5.5,0,10,4.5,10,10v36
	C724.9,167.8,720.4,172.3,714.9,172.3z"/>
<path class="st1" d="M731.9,100.8h-92c-5.5,0-10-4.5-10-10v-36c0-5.5,4.5-10,10-10h92c5.5,0,10,4.5,10,10v36
	C741.9,96.3,737.4,100.8,731.9,100.8z"/>
<path class="st1" d="M880.8,28h-36c-5.5,0-10-4.5-10-10v-36c0-5.5,4.5-10,10-10h36c5.5,0,10,4.5,10,10v36
	C890.8,23.5,886.3,28,880.8,28z"/>
<path class="st1" d="M783.3,28h-36c-5.5,0-10-4.5-10-10v-36c0-5.5,4.5-10,10-10h36c5.5,0,10,4.5,10,10v36
	C793.3,23.5,788.9,28,783.3,28z"/>
<path class="st1" d="M529.4,28h-36c-5.5,0-10-4.5-10-10v-36c0-5.5,4.5-10,10-10h36c5.5,0,10,4.5,10,10v36
	C539.4,23.5,534.9,28,529.4,28z"/>
<path class="st1" d="M601.4,100.8h-36c-5.5,0-10-4.5-10-10v-36c0-5.5,4.5-10,10-10h36c5.5,0,10,4.5,10,10v36
	C611.4,96.3,607,100.8,601.4,100.8z"/>
<path class="st1" d="M501.4,320.4h-36c-5.5,0-10-4.5-10-10v-36c0-5.5,4.5-10,10-10h36c5.5,0,10,4.5,10,10v36
	C511.4,315.9,506.9,320.4,501.4,320.4z"/>
<path class="st1" d="M918,172.3h-36c-5.5,0-10-4.5-10-10v-36c0-5.5,4.5-10,10-10h36c5.5,0,10,4.5,10,10v36
	C928,167.8,923.5,172.3,918,172.3z"/>
<path class="st1" d="M844.5,172.3h-92c-5.5,0-10-4.5-10-10v-36c0-5.5,4.5-10,10-10h92c5.5,0,10,4.5,10,10v36
	C854.5,167.8,850,172.3,844.5,172.3z"/>
<path class="st1" d="M641.4,172.3h-92c-5.5,0-10-4.5-10-10v-36c0-5.5,4.5-10,10-10h92c5.5,0,10,4.5,10,10v36
	C651.4,167.8,646.9,172.3,641.4,172.3z"/>
<path class="st1" d="M868.6,246.3h-92c-5.5,0-10-4.5-10-10v-36c0-5.5,4.5-10,10-10h92c5.5,0,10,4.5,10,10v36
	C878.6,241.9,874.1,246.3,868.6,246.3z"/>
<path class="st1" d="M737.1,246.3h-36c-5.5,0-10-4.5-10-10v-36c0-5.5,4.5-10,10-10h36c5.5,0,10,4.5,10,10v36
	C747.1,241.9,742.6,246.3,737.1,246.3z"/>
<path class="st1" d="M918,320.4h-36c-5.5,0-10-4.5-10-10v-36c0-5.5,4.5-10,10-10h36c5.5,0,10,4.5,10,10v36
	C928,315.9,923.5,320.4,918,320.4z"/>
<path class="st1" d="M662.8,246.3h-92c-5.5,0-10-4.5-10-10v-36c0-5.5,4.5-10,10-10h92c5.5,0,10,4.5,10,10v36
	C672.8,241.9,668.4,246.3,662.8,246.3z"/>
<path class="st1" d="M533.1,246.3h-36c-5.5,0-10-4.5-10-10v-36c0-5.5,4.5-10,10-10h36c5.5,0,10,4.5,10,10v36
	C543.1,241.9,538.6,246.3,533.1,246.3z"/>
<path class="st1" d="M631,320.4h-92c-5.5,0-10-4.5-10-10v-36c0-5.5,4.5-10,10-10h92c5.5,0,10,4.5,10,10v36
	C641,315.9,636.5,320.4,631,320.4z"/>
<path class="st1" d="M842.5,320.4h-36c-5.5,0-10-4.5-10-10v-36c0-5.5,4.5-10,10-10h36c5.5,0,10,4.5,10,10v36
	C852.5,315.9,848,320.4,842.5,320.4z"/>
<path class="st1" d="M365.6,320.4h-92c-5.5,0-10-4.5-10-10v-36c0-5.5,4.5-10,10-10h92c5.5,0,10,4.5,10,10v36
	C375.6,315.9,371.1,320.4,365.6,320.4z"/>
<path class="st1" d="M458.4,246.3h-36c-5.5,0-10-4.5-10-10v-36c0-5.5,4.5-10,10-10h36c5.5,0,10,4.5,10,10v36
	C468.4,241.9,464,246.3,458.4,246.3z"/>
</svg>
