<?xml version="1.0" encoding="utf-8"?>
<!-- Generator: Adobe Illustrator 23.1.1, SVG Export Plug-In . SVG Version: 6.00 Build 0)  -->
<svg version="1.1" id="Layer_1" xmlns="http://www.w3.org/2000/svg" xmlns:xlink="http://www.w3.org/1999/xlink" x="0px" y="0px"
	 viewBox="0 0 501.8 132.1" style="enable-background:new 0 0 501.8 132.1;" xml:space="preserve">
<style type="text/css">
	.st0{fill:#27272A;}
	.st1{fill:#EAB308;}
</style>
<g>
	<path class="st0" d="M187.3,98.5c-5.1-1.6-9.3-3.8-13.1-6.4c-12.2-8.4-10.6-19.5-10.6-20.6l21.9,0.2v-0.1c0,0,0,4.4,2.6,7.3
		c3.2,3.6,9.1,5.4,17.8,5.4c14.4,0,20.8-2.8,20.8-7.3c0-4.8-8.2-7.8-21.4-8.9c-8.2-0.7-15.4-2-21.1-3.8c-5.4-1.7-9.9-4-13.3-6.7
		c-4.8-4-7.2-8.6-7.2-13.9c0-7.3,3.8-12.2,7.2-15.1c7.4-6.2,19.2-9.5,35.5-9.5c21.4,0,32,7.1,37.1,13c5.4,6.4,5.8,13.7,5.8,14.9h-22
		v0.1c0,0,0.2-3.6-2.4-6.1c-3.2-3.4-9.6-5.4-18.6-5.4c-9.3,0-20,1.8-20,7.1c0,5,7,8,21.3,9.2c15.8,1.3,27.5,5,34.6,11.2
		c4.6,4.1,7,8.9,7,14c0,2.5,0,8.9-6.9,14.6c-3.5,3-8.3,5.3-14.2,6.8c-6.1,1.6-13.4,2.3-22.2,2.3C199,100.8,192.7,100.1,187.3,98.5z"
		/>
	<path class="st0" d="M343.1,69.6c0.2,17-18.2,31-41,31.1c-7.7,0-15.7-1.7-21-6.6v29.6h-22.3V39h22.4v6.5c4.3-4.2,13-6.5,20.5-6.6
		C324.4,38.7,343,52.5,343.1,69.6z M322.2,69.7c0-4.1-2.1-7.9-5.9-10.8c-3.8-2.8-9-4.3-14.4-4.3s-10.6,1.6-14.4,4.4
		c-3.8,3-5.9,6.7-5.9,10.8c0.2,4.1,2.2,7.9,6.1,10.8s9,4.4,14.4,4.4c5.4-0.1,10.6-1.7,14.4-4.6S322.3,73.8,322.2,69.7z"/>
	<path class="st0" d="M429.7,69.6c0.2,17-18.1,31-40.8,31.1C366,100.8,347.5,87,347.5,70c-0.2-17,18.1-31,41-31.1
		C411.1,38.7,429.7,52.5,429.7,69.6z M408.9,69.7c0-4.1-2.2-7.9-6.1-10.8c-3.8-2.8-9-4.3-14.4-4.3S378,56.2,374.2,59
		c-3.8,3-5.9,6.7-5.9,10.8s2.2,7.9,6.1,10.8s9,4.4,14.4,4.4c5.4-0.1,10.6-1.7,14.2-4.6C406.8,77.6,408.9,73.8,408.9,69.7z"/>
	<path class="st0" d="M490,55.7h-18.4v45h-22.4v-45h-18.6V38.9h18.6V17.3h22.4v21.6H490V55.7z"/>
</g>
<g>
	<g>
		<path class="st1" d="M56.3,54.8L14,97.1c-4.2,4.2-1.2,11.3,4.7,11.3h84.5c3.7,0,6.6-3,6.6-6.6V17.2c0-5.9-7.1-8.9-11.3-4.7
			L56.3,54.8z"/>
	</g>
	<circle class="st1" cx="29.7" cy="28.3" r="19.9"/>
</g>
</svg>
