<?xml version="1.0" encoding="utf-8"?>
<!-- Generator: Adobe Illustrator 23.1.1, SVG Export Plug-In . SVG Version: 6.00 Build 0)  -->
<svg version="1.1" id="Layer_1" xmlns="http://www.w3.org/2000/svg" xmlns:xlink="http://www.w3.org/1999/xlink" x="0px" y="0px"
	 viewBox="0 0 512 512" style="enable-background:new 0 0 512 512;" xml:space="preserve">
<style type="text/css">
	.st0{fill:#F9F6EE;}
	.st1{fill:#F75445;}
</style>
<path class="st0" d="M432.9,497H79.1C43.7,497,15,468.3,15,432.9V79.1C15,43.7,43.7,15,79.1,15h353.9c35.4,0,64.1,28.7,64.1,64.1
	v353.9C497,468.3,468.3,497,432.9,497z"/>
<g>
	<g>
		<path class="st1" d="M244.3,244.1L104.8,383.6c-13.8,13.8-4,37.4,15.5,37.4h278.9c12.1,0,21.9-9.8,21.9-21.9v-279
			c0-19.5-23.6-29.2-37.4-15.5L244.3,244.1z"/>
	</g>
	<circle class="st1" cx="156.6" cy="156.7" r="65.7"/>
</g>
</svg>
