<?xml version="1.0" encoding="utf-8"?>
<!-- Generator: Adobe Illustrator 23.1.1, SVG Export Plug-In . SVG Version: 6.00 Build 0)  -->
<svg version="1.1" id="Layer_1" xmlns="http://www.w3.org/2000/svg" xmlns:xlink="http://www.w3.org/1999/xlink" x="0px" y="0px"
	 viewBox="0 0 342 118.1" style="enable-background:new 0 0 342 118.1;" xml:space="preserve">
<g>
	<path d="M31.5,87.1c-5.1-1.6-9.3-3.8-13.1-6.4C6.2,72.3,7.8,61.2,7.8,60.1l21.9,0.2v-0.1c0,0,0,4.4,2.6,7.3
		c3.2,3.6,9.1,5.4,17.8,5.4c14.4,0,20.8-2.8,20.8-7.3c0-4.8-8.2-7.8-21.4-8.9c-8.2-0.7-15.4-2-21.1-3.8c-5.4-1.7-9.9-4-13.3-6.7
		c-4.8-4-7.2-8.6-7.2-13.9c0-7.3,3.8-12.2,7.2-15.1c7.4-6.2,19.2-9.5,35.5-9.5c21.4,0,32,7.1,37.1,13c5.4,6.4,5.8,13.7,5.8,14.9
		H71.5v0.1c0,0,0.2-3.6-2.4-6.1c-3.2-3.4-9.6-5.4-18.6-5.4c-9.3,0-20,1.8-20,7.1c0,5,7,8,21.3,9.2c15.8,1.3,27.5,5,34.6,11.2
		c4.6,4.1,7,8.9,7,14c0,2.5,0,8.9-6.9,14.6c-3.5,3-8.3,5.3-14.2,6.8c-6.1,1.6-13.4,2.3-22.2,2.3C43.2,89.4,36.9,88.7,31.5,87.1z"/>
	<path d="M187.3,58.2c0.2,17-18.2,31-41,31.1c-7.7,0-15.7-1.7-21-6.6v29.6H103V27.6h22.4v6.5c4.3-4.2,13-6.5,20.5-6.6
		C168.6,27.3,187.2,41.1,187.3,58.2z M166.4,58.3c0-4.1-2.1-7.9-5.9-10.8c-3.8-2.8-9-4.3-14.4-4.3c-5.4,0-10.6,1.6-14.4,4.4
		c-3.8,3-5.9,6.7-5.9,10.8c0.2,4.1,2.2,7.9,6.1,10.8s9,4.4,14.4,4.4c5.4-0.1,10.6-1.7,14.4-4.6S166.5,62.4,166.4,58.3z"/>
	<path d="M273.9,58.2c0.2,17-18.1,31-40.8,31.1c-22.9,0.1-41.4-13.7-41.4-30.7c-0.2-17,18.1-31,41-31.1
		C255.3,27.3,273.9,41.1,273.9,58.2z M253.1,58.3c0-4.1-2.2-7.9-6.1-10.8c-3.8-2.8-9-4.3-14.4-4.3s-10.4,1.6-14.2,4.4
		c-3.8,3-5.9,6.7-5.9,10.8s2.2,7.9,6.1,10.8s9,4.4,14.4,4.4c5.4-0.1,10.6-1.7,14.2-4.6C251,66.2,253.1,62.4,253.1,58.3z"/>
	<path d="M334.2,44.3h-18.4v45h-22.4v-45h-18.6V27.5h18.6V5.9h22.4v21.6h18.4V44.3z"/>
</g>
</svg>
